<!-- Generated by IcoMoon.io -->
<svg version="1.1" xmlns="http://www.w3.org/2000/svg" width="32" height="32" viewBox="0 0 32 32">
<title>fox-shape</title>
<path d="M30.649 13.050c-0.102-0.817-1.098-1.915-1.098-1.915-0.332-2.554-1.2-1.175-1.2-1.175-1.047-0.766-0.894 0.996-0.894 0.996-1.481 0-5.849 2.401-8.582 1.737s-7.458-0.076-8.275 0.23-2.12-0.051-2.758 0.536-2.426 0.945-5.159 2.452c-2.733 1.507-2.682 2.886-2.682 2.886 2.452 1.124 10.012-2.018 10.012-2.018 0 0.204 0.153 0.255 0.153 0.255-0.715 0.281-1.405 1.098-1.915 1.175s-0.638 0.332-0.638 0.332c-2.656 3.193-1.788 3.142-1.788 3.142 0.102 0.409 0.434 0.128 0.434 0.128 0.23 0.051 0.332 0.128 0.562-0.511s1.379-2.401 2.988-2.426c1.609-0.026 2.554-0.587 2.554-0.587-1.66 1.609-1.762 0.792-1.584 1.711s1.047 2.12 1.329 2.324c0.281 0.204 1.915 0 1.915 0-0.281-0.409-1.124-0.272-1.124-0.272s-0.179-0.494-0.511-0.852c-0.332-0.358-0.69-1.43 0.97-1.609s2.605-1.456 2.86-1.864c0.255-0.409 0.102-1.022 1.405-0.383s3.933 0.766 3.933 0.766-0.23 0.358 0.511 1.379c0.741 1.022 0.204 1.2-0.69 1.149s-0.868 0.817-0.868 0.817c1.686 0.307 1.226-0.255 2.324-0.281s0.817-1.303 0.587-1.762c-0.23-0.46-0.332-1.405-0.332-1.405s1.251-0.307 1.251 0.715 1.839 1.354 2.605 1.532c0.766 0.179 2.018 0.741 2.35 0.97s1.098 1.098 1.66 0.741c0.562-0.358 0.741-0.843-0.102-0.919s-2.375-1.584-2.886-1.711-1.686-1.047-1.915-1.2c-0.23-0.153 0.128-1.149 0.281-1.558s2.094-2.452 3.065-1.456c0.97 0.996 1.762 0.741 1.481 0.511s-1.166-1.303-1.166-1.303c1.822 1.481 2.417 0.562 2.264 0.434s-1.226-0.893-1.328-1.711z"></path>
</svg>
