<!-- Generated by IcoMoon.io -->
<svg version="1.1" xmlns="http://www.w3.org/2000/svg" width="32" height="32" viewBox="0 0 32 32">
<title>fox-stay</title>
<path d="M31.977 11.302l-0.041 0.093c-0.306 0.699-1.056 1.169-1.82 1.169h-2.124v0.5c0 2.499-1.072 5.532-3.997 6.441l-0.496 5.271c0.363 0.142 0.621 0.495 0.621 0.909h-1.519l-0.607-6.511-4.952-0.859c-1.366 1.666-3.451 2.981-5.662 3.371l-0.469 3.095c0.357 0.145 0.609 0.495 0.609 0.904h-1.518l0-5.672c1.322-0.817 2.393-2.181 2.654-3.776 0 0-5.571 5.338-7.201 6.341-0.636 0.392-1.347 0.594-2.047 0.594-0.841 0-1.666-0.292-2.33-0.896-1.226-1.118-1.431-2.972-0.48-4.331l0.092-0.131c0.636 0.663 1.494 1.005 2.365 1.005 0.564 0 1.133-0.144 1.651-0.437 1.635-0.925 4.288-2.741 5.332-3.369 0.706-0.425 1.703-0.774 2.505-0.963 2.001-0.471 8.619-1.088 8.619-1.088l6.831-6.646v2.097c-0.001 0-0.001-0-0.002-0-0.003 0 0.002 0.002 0.002 0.002v-0.001c0.010 0.001 0.052 0.008 0.205 0.038 0.621 0.124 1.175 0.473 1.553 0.981l0.722 0.97 1.364 0.551c0.138 0.056 0.202 0.214 0.142 0.349zM19.008 19.417l-1.675-0.291c-0.537 0.598-1.151 1.136-1.816 1.6l1.769 4.959h1.519c0-0.526-0.417-0.955-0.939-0.974l-0.713-3.484c0.702-0.506 1.313-1.125 1.855-1.809zM27.158 24.72l-0.877-5.629c-0.459 0.419-1.045 0.767-1.584 0.969l1.777 5.625h1.519c-0-0.491-0.363-0.896-0.835-0.965z"></path>
</svg>
