<!-- Generated by IcoMoon.io -->
<svg version="1.1" xmlns="http://www.w3.org/2000/svg" width="32" height="32" viewBox="0 0 32 32">
<title>money-bag</title>
<path fill="#cf5f2b" d="M21 9.495v-2.258l2.895-5.789c0.155-0.31 0.138-0.678-0.044-0.973s-0.504-0.474-0.851-0.474h-4c-0.265 0-0.52 0.105-0.707 0.293l-1.293 1.293-1.293-1.293c-0.188-0.188-0.442-0.293-0.707-0.293h-6c-0.347 0-0.668 0.18-0.851 0.474s-0.199 0.663-0.044 0.973l2.895 5.789v2.258c-4.449 3.273-8 9.861-8 14.983 0 7.522 6.609 7.522 13 7.522s13 0 13-7.522c0-5.122-3.552-11.711-8-14.983zM13 8h6v1h-6v-1zM14.586 2l1.707 1.707c0.391 0.391 1.023 0.391 1.414 0l1.707-1.707h1.968l-2 4h-6.764l-2-4h3.968zM16 30c-7.816 0-11-0.5-11-5.522 0-4.046 2.928-10.353 7.313-13.478h7.374c4.385 3.125 7.313 9.432 7.313 13.478 0 5.023-3.184 5.522-11 5.522z"></path>
</svg>
