<svg aria-hidden="true" style="position: absolute; width: 0; height: 0; overflow: hidden;" version="1.1" xmlns="http://www.w3.org/2000/svg" xmlns:xlink="http://www.w3.org/1999/xlink">
<defs>
<symbol id="icon-cloud" viewBox="0 0 32 32">
<path d="M28.563 15.699c-0.042-3.014-2.507-5.452-5.531-5.452-0.682 0-1.359 0.127-1.992 0.372-0.487-1.477-1.399-2.803-2.619-3.789-1.441-1.165-3.256-1.806-5.112-1.806-4.369 0-7.945 3.461-8.13 7.786-1.391 0.412-2.642 1.244-3.564 2.379-1.042 1.283-1.616 2.901-1.616 4.556 0 3.987 3.244 7.231 7.231 7.231h18.86c3.258 0 5.909-2.651 5.909-5.909 0-2.308-1.364-4.411-3.437-5.368zM26.091 25.734h-18.86c-3.303 0-5.989-2.687-5.989-5.989 0-1.371 0.475-2.711 1.338-3.773 0.851-1.047 2.041-1.784 3.35-2.074 0.288-0.064 0.491-0.322 0.486-0.616l-0-0.020c-0.001-0.033-0.001-0.066-0.001-0.1 0-3.802 3.093-6.896 6.896-6.896 1.596 0 3.093 0.529 4.332 1.53 1.203 0.973 2.053 2.334 2.393 3.833 0.043 0.191 0.174 0.35 0.353 0.43s0.385 0.070 0.556-0.025c0.636-0.356 1.359-0.544 2.090-0.544 2.365 0 4.29 1.924 4.29 4.29 0 0.086-0.003 0.177-0.011 0.288-0.018 0.274 0.146 0.528 0.403 0.623 1.82 0.676 3.043 2.435 3.043 4.377 0 2.574-2.094 4.667-4.667 4.667z"></path>
</symbol>
<symbol id="icon-sun" viewBox="0 0 32 32">
<path d="M16 7.885c-4.474 0-8.115 3.64-8.115 8.114s3.64 8.115 8.115 8.115 8.115-3.64 8.115-8.115c0-4.474-3.64-8.114-8.115-8.114z"></path>
<path d="M28.089 16l2.972-3.993c0.203-0.273 0.261-0.627 0.156-0.951s-0.361-0.576-0.685-0.678l-4.751-1.484 0.057-4.977c0.004-0.34-0.157-0.661-0.433-0.861s-0.63-0.254-0.953-0.145l-4.716 1.592-2.88-4.060c-0.197-0.278-0.516-0.442-0.856-0.442s-0.659 0.165-0.856 0.442l-2.88 4.060-4.716-1.592c-0.322-0.109-0.677-0.055-0.953 0.145s-0.436 0.521-0.433 0.861l0.057 4.977-4.751 1.484c-0.325 0.101-0.58 0.354-0.685 0.678s-0.047 0.678 0.156 0.951l2.972 3.993-2.972 3.993c-0.203 0.273-0.261 0.627-0.156 0.951s0.361 0.576 0.685 0.678l4.751 1.484-0.057 4.977c-0.004 0.34 0.157 0.661 0.433 0.861s0.63 0.254 0.953 0.145l4.716-1.592 2.88 4.060c0.197 0.277 0.516 0.442 0.856 0.442s0.659-0.165 0.856-0.442l2.88-4.060 4.716 1.592c0.322 0.109 0.677 0.055 0.953-0.145s0.436-0.521 0.433-0.861l-0.057-4.977 4.751-1.484c0.325-0.101 0.58-0.354 0.685-0.678s0.047-0.678-0.156-0.951l-2.972-3.993zM16 26.214c-5.632 0-10.214-4.582-10.214-10.214s4.582-10.214 10.214-10.214 10.214 4.582 10.214 10.214-4.582 10.214-10.214 10.214z"></path>
</symbol>
<symbol id="icon-computer" viewBox="0 0 32 32">
<path d="M23.459 9.574h7.5c0.575 0 1.041 0.466 1.041 1.041v0 15.94c0 0.575-0.466 1.041-1.041 1.041v0h-7.5c-0.575 0-1.041-0.466-1.041-1.041v0-15.953c0.007-0.569 0.471-1.028 1.041-1.028 0 0 0 0 0 0v0zM0.781 3.925h26.957c0.428 0.007 0.774 0.353 0.781 0.78v2.044h-1.041v-1.002c0-0.387-0.314-0.7-0.7-0.7v0h-25.041c-0.384 0.003-0.695 0.315-0.695 0.7 0 0 0 0 0 0v0 14.284c0.001 0.385 0.313 0.697 0.697 0.7h18.073v3.020h-19.030c-0.431 0-0.781-0.35-0.781-0.781v0-18.265c0.007-0.428 0.353-0.774 0.78-0.781h0.001zM10.674 24.845h7.183c0.018 1.242 0.521 2.343 1.916 3.231h-11.015c1.117-0.81 1.916-1.786 1.916-3.231zM29.738 13.838h0.747v0.427h-0.747v-0.427zM27.207 23.322c0.62 0 1.122 0.502 1.122 1.122s-0.502 1.122-1.122 1.122c-0.62 0-1.122-0.502-1.122-1.122 0-0.001 0-0.002 0-0.003v0c0.002-0.619 0.503-1.119 1.122-1.119 0 0 0 0 0 0v0zM23.823 12.862h6.769c0.118 0 0.213 0.096 0.213 0.213v0 1.164c0 0 0 0 0 0 0 0.118-0.095 0.215-0.213 0.216h-6.769c-0.118 0-0.213-0.096-0.213-0.213v-1.166c0-0.118 0.096-0.213 0.213-0.213v0z"></path>
</symbol>
<symbol id="icon-playstation" viewBox="0 0 32 32">
<path d="M0.648 21.677c-1.2 0.8-0.8 2.318 1.759 3.039 2.639 0.879 5.517 1.119 8.315 0.64 0.16 0 0.32-0.080 0.4-0.080v-2.718l-2.718 0.879c-1.039 0.32-2.079 0.4-3.118 0.16-0.8-0.24-0.64-0.72 0.32-1.119l5.517-1.919v-2.958l-7.675 2.639c-0.96 0.32-1.919 0.8-2.798 1.439zM19.197 9.683v7.756c3.278 1.599 5.836 0 5.836-4.157 0-4.238-1.519-6.157-5.917-7.675-2.318-0.8-4.718-1.519-7.116-1.999v23.107l5.597 1.679v-19.429c0-0.879 0-1.519 0.64-1.279 0.879 0.24 0.96 1.119 0.96 1.999zM29.591 19.838c-2.318-0.8-4.797-1.119-7.196-0.879-1.279 0.080-2.479 0.4-3.598 0.8l-0.24 0.080v3.118l5.197-1.919c1.039-0.32 2.079-0.4 3.118-0.16 0.8 0.24 0.64 0.72-0.32 1.119l-7.996 2.958v3.039l11.034-4.078c0.8-0.32 1.519-0.72 2.159-1.359 0.56-0.8 0.32-1.919-2.159-2.718z"></path>
</symbol>
<symbol id="icon-xbox" viewBox="0 0 32 32">
<path d="M16 12.832s0.040 0 0 0c4.822 3.666 12.991 12.672 10.52 15.223-2.829 2.471-6.496 3.945-10.52 3.945s-7.731-1.475-10.52-3.945c-2.511-2.55 5.698-11.557 10.48-15.183 0-0.040 0.040-0.040 0.040-0.040zM24.328 2.351c-2.431-1.475-5.101-2.351-8.329-2.351s-5.898 0.877-8.329 2.351c-0.040 0-0.040 0.040-0.040 0.080s0.040 0.040 0.080 0.040c3.108-0.678 7.81 1.992 8.249 2.272h0.080c0.438-0.279 5.141-2.949 8.249-2.272 0.040 0 0.080 0 0.080-0.040s0-0.080-0.040-0.080zM4.802 4.583c-0.040 0-0.040 0.040-0.080 0.040-2.909 2.909-4.702 6.934-4.702 11.357 0 3.626 1.236 7.014 3.268 9.684 0 0.040 0.040 0.040 0.080 0.040s0.040-0.040 0-0.080c-1.236-3.786 5.021-12.911 8.249-16.737l0.040-0.040c0-0.040 0-0.040-0.040-0.040-4.901-4.862-6.535-4.344-6.814-4.224zM20.383 8.767l-0.040 0.040s0 0.040 0.040 0.040c3.228 3.826 9.444 12.951 8.249 16.737v0.080c0.040 0 0.080 0 0.080-0.040 2.032-2.67 3.268-6.057 3.268-9.684 0-4.423-1.793-8.448-4.742-11.357-0.040-0.040-0.040-0.040-0.080-0.040-0.239-0.080-1.873-0.598-6.774 4.224z"></path>
</symbol>
<symbol id="icon-battle-net" viewBox="0 0 32 32">
<path d="M28.075 14.101c0 0 2.631 0.133 2.631-1.415 0-2.021-3.502-3.845-3.502-3.845s0.548-1.165 0.891-1.815c0.343-0.651 1.307-3.19 1.393-3.77 0.109-0.729-0.057-0.958-0.057-0.958-0.238 1.563-2.781 6.060-2.983 6.215-2.481-1.163-5.89-1.487-5.89-1.487s-3.337-7.026-6.475-7.026c-3.111 0-3.096 6.017-3.096 6.017s-0.879-1.706-1.983-1.706c-1.613 0-2.143 2.441-2.143 5.087-3.186 0-5.866 0.712-6.105 0.781s-0.993 0.617-0.651 0.548c0.697-0.223 3.97-0.73 6.836-0.481 0.157 2.515 1.625 5.791 1.625 5.791s-3.148 4.561-3.148 7.819c0 0.857 0.373 2.425 2.634 2.425 1.893 0 4.019-1.139 4.419-1.37-0.349 0.499-0.608 1.449-0.608 1.884 0 0.357 0.212 1.37 1.671 1.37 1.875 0 3.97-1.437 3.97-1.437s1.977 3.287 3.668 4.794c0.456 0.406 0.891 0.48 0.891 0.48s-1.679-1.617-3.892-5.784c2.056-1.271 4.198-4.269 4.198-4.269s0.252 0.008 2.205 0.008c3.060 0 7.407-0.644 7.407-3.076 0-2.51-3.907-4.778-3.907-4.778zM28.417 12.591c0 0.887-0.845 0.877-0.845 0.877l-0.641 0.043c0 0-1.219-0.641-1.957-0.941 0 0 1.144-1.764 1.411-2.256 0.203 0.117 2.031 1.261 2.031 2.277zM15.614 3.54c1.438 0 3.491 3.395 3.491 3.395s-3.204-0.287-5.841 1.263c0.072-2.445 0.895-4.658 2.349-4.658zM9.916 6.291c0.457 0 0.905 0.556 1.089 1.027 0 0.311 0.162 2.13 0.162 2.13l-2.641-0.099c0-2.383 0.933-3.058 1.39-3.058zM9.642 22.831c-1.443 0-1.741-0.804-1.741-1.528 0-1.639 1.308-3.931 1.308-3.931s1.465 3.083 4.024 4.385c-1.27 0.745-2.317 1.075-3.591 1.075zM14.328 26.060c-1.011 0-1.135-0.656-1.135-0.809 0-0.471 0.368-1.027 0.368-1.027s1.701-1.149 1.808-1.272l1.257 2.345c0 0-1.287 0.763-2.298 0.763zM17.484 24.781c-0.615-1.077-1.069-2.201-1.069-2.201s2.529 0.164 3.888-1.241c-0.847 0.381-2.197 0.861-3.769 0.717 3.285-2.894 5.201-4.991 6.822-7.158-0.14-0.168-0.881-0.685-1.063-0.773-0.979 1.178-4.781 5.246-8.304 7.259-4.459-2.433-5.396-9.59-5.491-11.077l2.436 0.234c0 0-0.915 1.623-0.915 2.818s0.143 1.257 0.143 1.257-0.031-2.082 1.255-3.69c0.979 5.215 2 7.886 2.796 9.479 0.405-0.168 1.161-0.503 1.161-0.503s-2.251-6.487-2.125-10.877c1.021-0.545 2.531-1.107 4.236-1.107 4.487 0 8.095 1.932 8.095 1.932l-1.412 1.971c0 0-1.258-2.279-3.033-2.684 0.937 0.699 1.985 1.622 2.531 2.95-3.719-1.454-8.206-2.223-9.646-2.391-0.126 0.531-0.109 1.29-0.109 1.29s6.018 1.111 10.398 3.617c-0.031 5.481-6 9.689-6.825 10.177zM23.184 20.685c0 0 1.869-2.452 1.839-5.701 0 0 3.019 1.869 3.019 3.693 0 2.038-4.857 2.007-4.857 2.007z"></path>
</symbol>
<symbol id="icon-arrow" viewBox="0 0 32 32">
<path d="M3.556 7.111h-3.556l7.111 8.835-7.111 8.943h3.556l7.111-8.943z"></path>
<path d="M8.943 7.111h-3.556l7.111 8.835-7.111 8.943h3.556l7.111-8.943z"></path>
<path d="M14.33 7.111h-3.556l7.111 8.835-7.111 8.943h3.556l7.111-8.943z"></path>
<path d="M24.889 7.111h-8.835l7.111 8.835-7.111 8.943h8.835l7.111-8.943z"></path>
</symbol>
<symbol id="icon-up-arrow" viewBox="0 0 32 32">
<path d="M31.68 21.932l-14.943-14.942c-0.213-0.214-0.459-0.321-0.737-0.321s-0.524 0.107-0.738 0.321l-14.942 14.942c-0.214 0.214-0.321 0.46-0.321 0.738s0.107 0.524 0.321 0.737l1.603 1.603c0.214 0.214 0.46 0.321 0.738 0.321s0.524-0.107 0.738-0.321l12.602-12.601 12.602 12.602c0.214 0.214 0.46 0.32 0.737 0.32s0.524-0.107 0.738-0.32l1.603-1.603c0.214-0.214 0.32-0.46 0.32-0.737s-0.106-0.524-0.32-0.738z"></path>
</symbol>
<symbol id="icon-arrow-down" viewBox="0 0 32 32">
<path d="M31.68 8.593l-1.603-1.603c-0.214-0.214-0.46-0.321-0.738-0.321s-0.523 0.107-0.737 0.321l-12.602 12.601-12.601-12.601c-0.214-0.214-0.46-0.321-0.738-0.321s-0.524 0.107-0.738 0.321l-1.603 1.603c-0.214 0.214-0.321 0.46-0.321 0.738s0.107 0.524 0.321 0.737l14.942 14.942c0.214 0.214 0.46 0.321 0.738 0.321s0.523-0.107 0.737-0.321l14.943-14.942c0.214-0.214 0.32-0.46 0.32-0.737s-0.106-0.524-0.32-0.738z"></path>
</symbol>
<symbol id="icon-money-bag" viewBox="0 0 32 32">
<path fill="#cf5f2b" style="fill: var(--color1, #cf5f2b)" d="M21 9.495v-2.258l2.895-5.789c0.155-0.31 0.138-0.678-0.044-0.973s-0.504-0.474-0.851-0.474h-4c-0.265 0-0.52 0.105-0.707 0.293l-1.293 1.293-1.293-1.293c-0.188-0.188-0.442-0.293-0.707-0.293h-6c-0.347 0-0.668 0.18-0.851 0.474s-0.199 0.663-0.044 0.973l2.895 5.789v2.258c-4.449 3.273-8 9.861-8 14.983 0 7.522 6.609 7.522 13 7.522s13 0 13-7.522c0-5.122-3.552-11.711-8-14.983zM13 8h6v1h-6v-1zM14.586 2l1.707 1.707c0.391 0.391 1.023 0.391 1.414 0l1.707-1.707h1.968l-2 4h-6.764l-2-4h3.968zM16 30c-7.816 0-11-0.5-11-5.522 0-4.046 2.928-10.353 7.313-13.478h7.374c4.385 3.125 7.313 9.432 7.313 13.478 0 5.023-3.184 5.522-11 5.522z"></path>
</symbol>
<symbol id="icon-fox-shape" viewBox="0 0 32 32">
<path d="M30.649 13.050c-0.102-0.817-1.098-1.915-1.098-1.915-0.332-2.554-1.2-1.175-1.2-1.175-1.047-0.766-0.894 0.996-0.894 0.996-1.481 0-5.849 2.401-8.582 1.737s-7.458-0.076-8.275 0.23-2.12-0.051-2.758 0.536-2.426 0.945-5.159 2.452c-2.733 1.507-2.682 2.886-2.682 2.886 2.452 1.124 10.012-2.018 10.012-2.018 0 0.204 0.153 0.255 0.153 0.255-0.715 0.281-1.405 1.098-1.915 1.175s-0.638 0.332-0.638 0.332c-2.656 3.193-1.788 3.142-1.788 3.142 0.102 0.409 0.434 0.128 0.434 0.128 0.23 0.051 0.332 0.128 0.562-0.511s1.379-2.401 2.988-2.426c1.609-0.026 2.554-0.587 2.554-0.587-1.66 1.609-1.762 0.792-1.584 1.711s1.047 2.12 1.329 2.324c0.281 0.204 1.915 0 1.915 0-0.281-0.409-1.124-0.272-1.124-0.272s-0.179-0.494-0.511-0.852c-0.332-0.358-0.69-1.43 0.97-1.609s2.605-1.456 2.86-1.864c0.255-0.409 0.102-1.022 1.405-0.383s3.933 0.766 3.933 0.766-0.23 0.358 0.511 1.379c0.741 1.022 0.204 1.2-0.69 1.149s-0.868 0.817-0.868 0.817c1.686 0.307 1.226-0.255 2.324-0.281s0.817-1.303 0.587-1.762c-0.23-0.46-0.332-1.405-0.332-1.405s1.251-0.307 1.251 0.715 1.839 1.354 2.605 1.532c0.766 0.179 2.018 0.741 2.35 0.97s1.098 1.098 1.66 0.741c0.562-0.358 0.741-0.843-0.102-0.919s-2.375-1.584-2.886-1.711-1.686-1.047-1.915-1.2c-0.23-0.153 0.128-1.149 0.281-1.558s2.094-2.452 3.065-1.456c0.97 0.996 1.762 0.741 1.481 0.511s-1.166-1.303-1.166-1.303c1.822 1.481 2.417 0.562 2.264 0.434s-1.226-0.893-1.328-1.711z"></path>
</symbol>
<symbol id="icon-fox-stay" viewBox="0 0 32 32">
<path d="M31.977 11.302l-0.041 0.093c-0.306 0.699-1.056 1.169-1.82 1.169h-2.124v0.5c0 2.499-1.072 5.532-3.997 6.441l-0.496 5.271c0.363 0.142 0.621 0.495 0.621 0.909h-1.519l-0.607-6.511-4.952-0.859c-1.366 1.666-3.451 2.981-5.662 3.371l-0.469 3.095c0.357 0.145 0.609 0.495 0.609 0.904h-1.518l0-5.672c1.322-0.817 2.393-2.181 2.654-3.776 0 0-5.571 5.338-7.201 6.341-0.636 0.392-1.347 0.594-2.047 0.594-0.841 0-1.666-0.292-2.33-0.896-1.226-1.118-1.431-2.972-0.48-4.331l0.092-0.131c0.636 0.663 1.494 1.005 2.365 1.005 0.564 0 1.133-0.144 1.651-0.437 1.635-0.925 4.288-2.741 5.332-3.369 0.706-0.425 1.703-0.774 2.505-0.963 2.001-0.471 8.619-1.088 8.619-1.088l6.831-6.646v2.097c-0.001 0-0.001-0-0.002-0-0.003 0 0.002 0.002 0.002 0.002v-0.001c0.010 0.001 0.052 0.008 0.205 0.038 0.621 0.124 1.175 0.473 1.553 0.981l0.722 0.97 1.364 0.551c0.138 0.056 0.202 0.214 0.142 0.349zM19.008 19.417l-1.675-0.291c-0.537 0.598-1.151 1.136-1.816 1.6l1.769 4.959h1.519c0-0.526-0.417-0.955-0.939-0.974l-0.713-3.484c0.702-0.506 1.313-1.125 1.855-1.809zM27.158 24.72l-0.877-5.629c-0.459 0.419-1.045 0.767-1.584 0.969l1.777 5.625h1.519c-0-0.491-0.363-0.896-0.835-0.965z"></path>
</symbol>
<symbol id="icon-fox" viewBox="0 0 32 32">
<path fill="#eb6c31" style="fill: var(--color2, #eb6c31)" d="M21.506 14.749l-5.526-0.517-5.526 0.517c0 0-3.059 0.904-2.96 5.233l1.283-0.775c0 0-0.987 1.744 0 4.394l1.184-0.775c0 0 0.987 4.2 3.75 7.172l0.395-0.775c0 0 0.493 1.486 1.875 2.778 1.381-1.292 1.875-2.778 1.875-2.778l0.395 0.775c2.763-2.972 3.75-7.172 3.75-7.172l1.184 0.775c0.987-2.649 0-4.394 0-4.394l1.283 0.775c0.099-4.329-2.96-5.233-2.96-5.233z"></path>
<path fill="#fce6d4" style="fill: var(--color3, #fce6d4)" d="M19.753 17.75l-3.773-0.353-3.773 0.353c0 0-2.088 0.618-2.021 3.573l0.876-0.529c0 0-0.674 1.191 0 3l0.809-0.529c0 0 0.674 2.867 2.56 4.897l0.27-0.529c0 0 0.337 1.015 1.28 1.897 0.943-0.882 1.28-1.897 1.28-1.897l0.269 0.529c1.886-2.029 2.56-4.897 2.56-4.897l0.808 0.529c0.674-1.809 0-3 0-3l0.876 0.529c0.067-2.956-2.021-3.573-2.021-3.573z"></path>
<path fill="#eb6c31" style="fill: var(--color2, #eb6c31)" d="M23.645 8.636c0 0 1.854-3.711-2.967-8.127 0 0 0.309 0.895 0 1.721 0 0 0.247-1.042-0.865-2.231 0 0 1.113 2.257-0.433 4.356s-3.338 3.633-3.4 4.281c-0.062-0.648-1.854-2.183-3.4-4.281s-0.433-4.356-0.433-4.356c-1.113 1.189-0.865 2.231-0.865 2.231-0.309-0.826 0-1.721 0-1.721-4.822 4.416-2.967 8.127-2.967 8.127-2.287 3.598-0.247 6.026-0.247 6.026l5.563 4.189c0.282-1.398 2.349-1.189 2.349-1.189s2.067-0.21 2.349 1.189l5.563-4.189c-0 0 2.040-2.428-0.247-6.026z"></path>
<path fill="#fce9db" style="fill: var(--color4, #fce9db)" d="M24.495 16.766c0 0 1.503-1.271 1.792-2.859 0 0-1.214 1.112-1.619 1.271 0 0 1.561-1.97 1.272-3.134 0 0-0.512 1.067-3.064 1.673-2.993 0.711-5.042 2.956-5.492 5.221l-1.404 0.229-1.404-0.229c-0.45-2.265-2.499-4.51-5.492-5.221-2.552-0.606-3.064-1.673-3.064-1.673-0.289 1.165 1.272 3.134 1.272 3.134-0.405-0.159-1.619-1.271-1.619-1.271 0.289 1.588 1.792 2.859 1.792 2.859-1.141-0.338-1.388-0.9-1.388-0.9s-0.083 0.899 1.225 1.788c0.945 0.642 1.82 1.226 5.46 2.108 1.013 0.245 1.944 1.526 3.206 1.542v0.001c0.004 0 0.008-0 0.012-0s0.008 0 0.012 0v-0.001c1.262-0.016 2.193-1.297 3.206-1.542 3.64-0.882 4.516-1.465 5.46-2.108 1.308-0.889 1.224-1.788 1.224-1.788s-0.247 0.562-1.387 0.9z"></path>
<path fill="#fcf3eb" style="fill: var(--color5, #fcf3eb)" d="M16.826 16.921c-0.446 0.006-0.702 0.213-0.846 0.483-0.144-0.27-0.4-0.477-0.846-0.483-1.318-0.018-1.616 1.463-1.253 2.020s1.388 0.735 1.646 0.583c0.217-0.128 0.361-0.326 0.453-0.495 0.092 0.169 0.236 0.367 0.453 0.495 0.258 0.152 1.284-0.025 1.646-0.583s0.065-2.037-1.253-2.020z"></path>
<path fill="#fcf3eb" style="fill: var(--color5, #fcf3eb)" d="M17.28 17.67c0.014-0.151 0.023-0.312 0.023-0.485 0-1.529-0.968-3.747-1.323-3.747s-1.323 2.218-1.323 3.747c0 0.173 0.009 0.334 0.023 0.485h2.599z"></path>
<path fill="#332a24" style="fill: var(--color6, #332a24)" d="M15.981 17.162c-0.921 0-1.349 0.417-1.349 0.417s0.912 1.251 1.349 1.273c0.437-0.022 1.349-1.273 1.349-1.273s-0.428-0.417-1.349-0.417z"></path>
<path fill="#424140" style="fill: var(--color7, #424140)" d="M15.981 17.372c0.792 0 1.227 0.156 1.348 0.207l0-0.001c0 0-0.428-0.417-1.349-0.417s-1.349 0.417-1.349 0.417l0.001 0.001c0.121-0.051 0.556-0.207 1.348-0.207z"></path>
<path fill="#fcf3eb" style="fill: var(--color5, #fcf3eb)" d="M19.895 8.194c0 0 1.4-0.827 3.246 0 0 0 0.987-3.819-1.114-4.965-0.696-0.379-2.737 2.51-2.132 4.965z"></path>
<path fill="#fcf3eb" style="fill: var(--color5, #fcf3eb)" d="M12.066 8.194c0 0-1.4-0.827-3.246 0 0 0-0.987-3.819 1.114-4.965 0.696-0.379 2.737 2.51 2.132 4.965z"></path>
<path fill="#332a24" style="fill: var(--color6, #332a24)" d="M20.646 2.741c0.575 0 1.1-0.253 1.501-0.668-0.402-0.507-0.887-1.030-1.469-1.563 0 0 0.309 0.895 0 1.721 0 0 0.247-1.042-0.865-2.231 0 0 0.592 1.203 0.311 2.669 0.168 0.046 0.342 0.072 0.522 0.072z"></path>
<path fill="#332a24" style="fill: var(--color6, #332a24)" d="M11.315 2.741c0.18 0 0.354-0.025 0.522-0.072-0.281-1.466 0.311-2.669 0.311-2.669-1.113 1.189-0.865 2.231-0.865 2.231-0.309-0.826 0-1.721 0-1.721-0.582 0.533-1.066 1.056-1.469 1.563 0.4 0.416 0.926 0.668 1.501 0.668z"></path>
<path fill="#332a24" style="fill: var(--color6, #332a24)" d="M17.62 13.887c0 0 0.677-1.73 2.83-1.465 0 0 0.137 1.064-0.642 1.502s-2.188-0.037-2.188-0.037z"></path>
<path fill="#d69a20" style="fill: var(--color8, #d69a20)" d="M19.874 13.197c0 0.316-0.256 0.571-0.571 0.571s-0.571-0.256-0.571-0.571c0-0.316 0.256-0.571 0.571-0.571s0.571 0.256 0.571 0.571z"></path>
<path fill="#fff" style="fill: var(--color9, #fff)" d="M19.361 13.019c0 0.127-0.103 0.23-0.23 0.23s-0.23-0.103-0.23-0.23c0-0.127 0.103-0.23 0.23-0.23s0.23 0.103 0.23 0.23z"></path>
<path fill="#332a24" style="fill: var(--color6, #332a24)" d="M14.341 13.887c0 0-0.677-1.73-2.83-1.465 0 0-0.137 1.064 0.642 1.502s2.188-0.037 2.188-0.037z"></path>
<path fill="#d69a20" style="fill: var(--color8, #d69a20)" d="M13.23 13.197c0 0.316-0.256 0.571-0.571 0.571s-0.571-0.256-0.571-0.571c0-0.316 0.256-0.571 0.571-0.571s0.571 0.256 0.571 0.571z"></path>
<path fill="#fff" style="fill: var(--color9, #fff)" d="M13.060 13.019c0 0.127-0.103 0.23-0.23 0.23s-0.23-0.103-0.23-0.23c0-0.127 0.103-0.23 0.23-0.23s0.23 0.103 0.23 0.23z"></path>
<path fill="#cf5f2b" style="fill: var(--color1, #cf5f2b)" d="M15.981 5.028c-1.328 0-2.606 0.751-2.576 2.065l0.39-0.235c0 0-0.3 0.53 0 1.334l0.359-0.235c0 0 0.3 1.275 1.138 2.178l0.12-0.235c0 0 0.15 0.451 0.569 0.844 0.419-0.392 0.569-0.844 0.569-0.844l0.12 0.235c0.839-0.902 1.138-2.178 1.138-2.178l0.36 0.235c0.299-0.804 0-1.334 0-1.334l0.389 0.235c0.030-1.314-1.248-2.065-2.576-2.065z"></path>
<path fill="#5c4337" style="fill: var(--color10, #5c4337)" opacity="0.1" d="M16.019 5.028c0.849 0 1.675 0.308 2.155 0.872 0.408-0.471 0.835-0.988 1.245-1.544 0.417-0.567 0.64-1.144 0.744-1.687 0.228-1.19-0.119-2.206-0.258-2.547-0-0.001-0.001-0.002-0.001-0.003-0.021-0.050-0.036-0.085-0.045-0.104-0.001-0.002-0.002-0.004-0.002-0.005-0.003-0.006-0.005-0.011-0.005-0.011 0.139 0.149 0.257 0.295 0.357 0.437s0.181 0.281 0.248 0.413c0.067 0.132 0.118 0.259 0.158 0.378 0.199 0.595 0.103 1.002 0.103 1.002 0.116-0.31 0.145-0.629 0.136-0.908-0.005-0.139-0.019-0.268-0.036-0.38-0.041-0.262-0.1-0.433-0.1-0.433v0 0c0.006 0.005 0.011 0.010 0.016 0.015 0.068 0.062 0.135 0.125 0.2 0.187 0.036 0.035 0.072 0.069 0.107 0.104 0.033 0.032 0.067 0.064 0.099 0.096 0.048 0.047 0.094 0.095 0.141 0.142 0.018 0.018 0.037 0.037 0.055 0.055 0.053 0.054 0.104 0.108 0.155 0.162 0.010 0.011 0.021 0.022 0.032 0.034 0.056 0.059 0.11 0.119 0.163 0.178 0.005 0.005 0.010 0.011 0.015 0.016 0.057 0.063 0.112 0.126 0.166 0.188 0.001 0.001 0.002 0.003 0.003 0.004 3.348 3.877 1.815 6.947 1.815 6.947 1.188 1.869 1.208 3.422 0.953 4.483 1.080-0.532 1.342-1.077 1.342-1.077 0.074 0.299 0.026 0.65-0.085 1.008-0.051 0.601-0.399 1.298-0.723 1.831 0.507-0.382 1.155-0.975 1.155-0.975-0.037 0.205-0.095 0.404-0.167 0.597 0.034-0.030 0.053-0.048 0.053-0.048-0.147 0.807-0.607 1.531-1.024 2.049 0.586-0.307 0.734-0.64 0.734-0.64s0.021 0.234-0.131 0.58c0.011-0.019 0.017-0.031 0.017-0.031s0.083 0.899-1.225 1.788c-0.070 0.047-0.139 0.095-0.21 0.142 0.095 0.483 0.146 1.025 0.132 1.638l-1.283-0.775c0 0 0.987 1.744 0 4.394l-1.184-0.775c0 0-0.987 4.2-3.75 7.172l-0.395-0.775c0 0-0.493 1.486-1.875 2.778v-26.972z"></path>
</symbol>
<symbol id="icon-cart" viewBox="0 0 32 32">
<path d="M12 29c0 1.657-1.343 3-3 3s-3-1.343-3-3c0-1.657 1.343-3 3-3s3 1.343 3 3z"></path>
<path d="M32 29c0 1.657-1.343 3-3 3s-3-1.343-3-3c0-1.657 1.343-3 3-3s3 1.343 3 3z"></path>
<path d="M32 16v-12h-24c0-1.105-0.895-2-2-2h-6v2h4l1.502 12.877c-0.915 0.733-1.502 1.859-1.502 3.123 0 2.209 1.791 4 4 4h24v-2h-24c-1.105 0-2-0.895-2-2 0-0.007 0-0.014 0-0.020l26-3.98z"></path>
</symbol>
<symbol id="icon-user-plus" viewBox="0 0 32 32">
<path d="M12 23c0-4.726 2.996-8.765 7.189-10.319 0.509-1.142 0.811-2.411 0.811-3.681 0-4.971 0-9-6-9s-6 4.029-6 9c0 3.096 1.797 6.191 4 7.432v1.649c-6.784 0.555-12 3.888-12 7.918h12.416c-0.271-0.954-0.416-1.96-0.416-3z"></path>
<path d="M23 14c-4.971 0-9 4.029-9 9s4.029 9 9 9c4.971 0 9-4.029 9-9s-4.029-9-9-9zM28 24h-4v4h-2v-4h-4v-2h4v-4h2v4h4v2z"></path>
</symbol>
<symbol id="icon-cogs" viewBox="0 0 32 32">
<path d="M11.366 22.564l1.291-1.807-1.414-1.414-1.807 1.291c-0.335-0.187-0.694-0.337-1.071-0.444l-0.365-2.19h-2l-0.365 2.19c-0.377 0.107-0.736 0.256-1.071 0.444l-1.807-1.291-1.414 1.414 1.291 1.807c-0.187 0.335-0.337 0.694-0.443 1.071l-2.19 0.365v2l2.19 0.365c0.107 0.377 0.256 0.736 0.444 1.071l-1.291 1.807 1.414 1.414 1.807-1.291c0.335 0.187 0.694 0.337 1.071 0.444l0.365 2.19h2l0.365-2.19c0.377-0.107 0.736-0.256 1.071-0.444l1.807 1.291 1.414-1.414-1.291-1.807c0.187-0.335 0.337-0.694 0.444-1.071l2.19-0.365v-2l-2.19-0.365c-0.107-0.377-0.256-0.736-0.444-1.071zM7 27c-1.105 0-2-0.895-2-2s0.895-2 2-2 2 0.895 2 2-0.895 2-2 2zM32 12v-2l-2.106-0.383c-0.039-0.251-0.088-0.499-0.148-0.743l1.799-1.159-0.765-1.848-2.092 0.452c-0.132-0.216-0.273-0.426-0.422-0.629l1.219-1.761-1.414-1.414-1.761 1.219c-0.203-0.149-0.413-0.29-0.629-0.422l0.452-2.092-1.848-0.765-1.159 1.799c-0.244-0.059-0.492-0.109-0.743-0.148l-0.383-2.106h-2l-0.383 2.106c-0.251 0.039-0.499 0.088-0.743 0.148l-1.159-1.799-1.848 0.765 0.452 2.092c-0.216 0.132-0.426 0.273-0.629 0.422l-1.761-1.219-1.414 1.414 1.219 1.761c-0.149 0.203-0.29 0.413-0.422 0.629l-2.092-0.452-0.765 1.848 1.799 1.159c-0.059 0.244-0.109 0.492-0.148 0.743l-2.106 0.383v2l2.106 0.383c0.039 0.251 0.088 0.499 0.148 0.743l-1.799 1.159 0.765 1.848 2.092-0.452c0.132 0.216 0.273 0.426 0.422 0.629l-1.219 1.761 1.414 1.414 1.761-1.219c0.203 0.149 0.413 0.29 0.629 0.422l-0.452 2.092 1.848 0.765 1.159-1.799c0.244 0.059 0.492 0.109 0.743 0.148l0.383 2.106h2l0.383-2.106c0.251-0.039 0.499-0.088 0.743-0.148l1.159 1.799 1.848-0.765-0.452-2.092c0.216-0.132 0.426-0.273 0.629-0.422l1.761 1.219 1.414-1.414-1.219-1.761c0.149-0.203 0.29-0.413 0.422-0.629l2.092 0.452 0.765-1.848-1.799-1.159c0.059-0.244 0.109-0.492 0.148-0.743l2.106-0.383zM21 15.35c-2.402 0-4.35-1.948-4.35-4.35s1.948-4.35 4.35-4.35 4.35 1.948 4.35 4.35c0 2.402-1.948 4.35-4.35 4.35z"></path>
</symbol>
<symbol id="icon-menu" viewBox="0 0 32 32">
<path d="M2 6h28v6h-28zM2 14h28v6h-28zM2 22h28v6h-28z"></path>
</symbol>
<symbol id="icon-cross" viewBox="0 0 32 32">
<path d="M31.708 25.708c-0-0-0-0-0-0l-9.708-9.708 9.708-9.708c0-0 0-0 0-0 0.105-0.105 0.18-0.227 0.229-0.357 0.133-0.356 0.057-0.771-0.229-1.057l-4.586-4.586c-0.286-0.286-0.702-0.361-1.057-0.229-0.13 0.048-0.252 0.124-0.357 0.228 0 0-0 0-0 0l-9.708 9.708-9.708-9.708c-0-0-0-0-0-0-0.105-0.104-0.227-0.18-0.357-0.228-0.356-0.133-0.771-0.057-1.057 0.229l-4.586 4.586c-0.286 0.286-0.361 0.702-0.229 1.057 0.049 0.13 0.124 0.252 0.229 0.357 0 0 0 0 0 0l9.708 9.708-9.708 9.708c-0 0-0 0-0 0-0.104 0.105-0.18 0.227-0.229 0.357-0.133 0.355-0.057 0.771 0.229 1.057l4.586 4.586c0.286 0.286 0.702 0.361 1.057 0.229 0.13-0.049 0.252-0.124 0.357-0.229 0-0 0-0 0-0l9.708-9.708 9.708 9.708c0 0 0 0 0 0 0.105 0.105 0.227 0.18 0.357 0.229 0.356 0.133 0.771 0.057 1.057-0.229l4.586-4.586c0.286-0.286 0.362-0.702 0.229-1.057-0.049-0.13-0.124-0.252-0.229-0.357z"></path>
</symbol>
<symbol id="icon-enter" viewBox="0 0 32 32">
<path d="M12 16h-10v-4h10v-4l6 6-6 6zM32 0v26l-12 6v-6h-12v-8h2v6h10v-18l8-4h-18v8h-2v-10z"></path>
</symbol>
</defs>
</svg>
